# xmcd CD database file generated by OrangeCD 6.3
#
# Track frame offsets:
#	150
#	13577
#	27577
#	40720
#	54295
#	67090
#	80407
#	92735
#	102970
#	115275
#	126765
#	139797
#	152555
#	164635
#	176915
#	189702
#	202775
#	215247
#
# Disc length: 3057 seconds
#
# Revision: 2
# Processed by: cddbd v1.5.2PL0 Copyright (c) Steve Scherf et al.
# Submitted via: OrangeCD 6.3
#
DISCID=010bef12
DTITLE=Wynonie Harris - Around The Clock Blues
DYEAR=1997
DGENRE=R&B
TTITLE0=Who Threw The Whiskey In The Well
TTITLE1=Hurry, Hurry
TTITLE2=Around The Clock Blues Pt. 1
TTITLE3=Around The Clock Blues Pt. 2
TTITLE4=Wynonie's Blues
TTITLE5=Here Comes The Blues
TTITLE6=She's Gone With The Wind
TTITLE7=Everybody's Boogie
TTITLE8=I Gotta Lyin' Woman
TTITLE9=Hey! Ba-Ba-Re-Bop Pt. 1
TTITLE10=Hey! Ba-Ba-Re-Bop Pt. 2
TTITLE11=In The Evenin' Blues
TTITLE12=Drinkin' By Myself
TTITLE13=Lightnin' Struck The Poor House
TTITLE14=Mr. Blues Jumped The Rabbit
TTITLE15=Rugged Road
TTITLE16=Come Back, Baby
TTITLE17=Whiskey And Jelly-Roll Blues
EXTD=
EXTT0=
EXTT1=
EXTT2=
EXTT3=
EXTT4=
EXTT5=
EXTT6=
EXTT7=
EXTT8=
EXTT9=
EXTT10=
EXTT11=
EXTT12=
EXTT13=
EXTT14=
EXTT15=
EXTT16=
EXTT17=
PLAYORDER=
